<?xml version="1.0" encoding="UTF-8" standalone="no"?>
<svg
   xmlns:dc="http://purl.org/dc/elements/1.1/"
   xmlns:cc="http://creativecommons.org/ns#"
   xmlns:rdf="http://www.w3.org/1999/02/22-rdf-syntax-ns#"
   xmlns:svg="http://www.w3.org/2000/svg"
   xmlns="http://www.w3.org/2000/svg"
   xmlns:sodipodi="http://sodipodi.sourceforge.net/DTD/sodipodi-0.dtd"
   xmlns:inkscape="http://www.inkscape.org/namespaces/inkscape"
   version="1.1"
   id="Layer_1"
   x="0px"
   y="0px"
   width="100px"
   height="100px"
   viewBox="0 0 100 100"
   enable-background="new 0 0 100 100"
   xml:space="preserve"
   inkscape:version="0.48.4 r9939"
   sodipodi:docname="calendar2.svg"><metadata
   id="metadata123"><rdf:RDF><cc:Work
       rdf:about=""><dc:format>image/svg+xml</dc:format><dc:type
         rdf:resource="http://purl.org/dc/dcmitype/StillImage" /></cc:Work></rdf:RDF></metadata><defs
   id="defs121" /><sodipodi:namedview
   pagecolor="#ffffff"
   bordercolor="#666666"
   borderopacity="1"
   objecttolerance="10"
   gridtolerance="10"
   guidetolerance="10"
   inkscape:pageopacity="0"
   inkscape:pageshadow="2"
   inkscape:window-width="640"
   inkscape:window-height="480"
   id="namedview119"
   showgrid="false"
   inkscape:zoom="1.668772"
   inkscape:cx="18.116891"
   inkscape:cy="32.534737"
   inkscape:window-x="0"
   inkscape:window-y="0"
   inkscape:window-maximized="0"
   inkscape:current-layer="Layer_1" />















































<rect
   x="7"
   y="17.718"
   width="10.592"
   height="75.459"
   id="rect97"
   style="fill:#adadae;fill-opacity:1" />
<rect
   x="82.779"
   y="17.718"
   width="10.59"
   height="75.459"
   id="rect99"
   style="fill:#adadae;fill-opacity:1" />
<rect
   x="7"
   y="81.708"
   width="86.369"
   height="11.469"
   id="rect101"
   style="fill:#adadae;fill-opacity:1" />
<rect
   x="23.157"
   y="39.469"
   width="11.128"
   height="10.521"
   id="rect103"
   style="fill:#adadae;fill-opacity:1" />
<rect
   x="44.621"
   y="39.469"
   width="11.129"
   height="10.521"
   id="rect105"
   style="fill:#adadae;fill-opacity:1" />
<rect
   x="66.469"
   y="39.469"
   width="11.127"
   height="10.521"
   id="rect107"
   style="fill:#adadae;fill-opacity:1" />
<rect
   x="23.157"
   y="60.908"
   width="11.128"
   height="10.522"
   id="rect109"
   style="fill:#adadae;fill-opacity:1" />
<rect
   x="44.621"
   y="60.908"
   width="11.129"
   height="10.522"
   id="rect111"
   style="fill:#adadae;fill-opacity:1" />
<rect
   x="66.469"
   y="60.908"
   width="11.127"
   height="10.522"
   id="rect113"
   style="fill:#adadae;fill-opacity:1" />
<path
   d="M39.246,23.533c0,3.074-2.491,5.564-5.563,5.564l0,0c-3.073,0-5.564-2.491-5.564-5.564V12.37  c0-3.073,2.491-5.564,5.564-5.564l0,0c3.072,0,5.563,2.491,5.563,5.564V23.533z"
   id="path115"
   style="fill:#adadae;fill-opacity:1" />
<path
   d="M72.033,23.3c0,3.074-2.492,5.564-5.563,5.564l0,0c-3.074,0-5.564-2.491-5.564-5.564V12.138c0-3.074,2.49-5.564,5.564-5.564  l0,0c3.07,0,5.563,2.491,5.563,5.564V23.3z"
   id="path117"
   style="fill:#adadae;fill-opacity:1" />
</svg>