<?xml version="1.0" encoding="UTF-8" standalone="no"?>
<svg
   xmlns:dc="http://purl.org/dc/elements/1.1/"
   xmlns:cc="http://creativecommons.org/ns#"
   xmlns:rdf="http://www.w3.org/1999/02/22-rdf-syntax-ns#"
   xmlns:svg="http://www.w3.org/2000/svg"
   xmlns="http://www.w3.org/2000/svg"
   xmlns:sodipodi="http://sodipodi.sourceforge.net/DTD/sodipodi-0.dtd"
   xmlns:inkscape="http://www.inkscape.org/namespaces/inkscape"
   version="1.1"
   id="Layer_1"
   x="0px"
   y="0px"
   width="100px"
   height="100px"
   viewBox="0 0 100 100"
   enable-background="new 0 0 100 100"
   xml:space="preserve"
   inkscape:version="0.48.4 r9939"
   sodipodi:docname="email2.svg"><metadata
   id="metadata19"><rdf:RDF><cc:Work
       rdf:about=""><dc:format>image/svg+xml</dc:format><dc:type
         rdf:resource="http://purl.org/dc/dcmitype/StillImage" /></cc:Work></rdf:RDF></metadata><defs
   id="defs17" /><sodipodi:namedview
   pagecolor="#ffffff"
   bordercolor="#666666"
   borderopacity="1"
   objecttolerance="10"
   gridtolerance="10"
   guidetolerance="10"
   inkscape:pageopacity="0"
   inkscape:pageshadow="2"
   inkscape:window-width="640"
   inkscape:window-height="470"
   id="namedview15"
   showgrid="false"
   inkscape:zoom="2.36"
   inkscape:cx="50"
   inkscape:cy="50"
   inkscape:window-x="182"
   inkscape:window-y="143"
   inkscape:window-maximized="0"
   inkscape:current-layer="Layer_1" />
<path
   fill="#000000"
   d="M66.682,47.733L50.296,60.288L33.868,47.785l-18.352,18.25l0.013,5.547c0.002,1.598,1.389,2.888,3.089,2.881  l63.397-0.102c1.705,0.005,3.084-1.289,3.082-2.887l-0.008-5.539L66.682,47.733z"
   id="path3"
   style="fill:#adadae;fill-opacity:1" />
<polygon
   fill="#000000"
   points="29.972,44.821 15.469,33.781 15.506,59.205 "
   id="polygon5"
   style="fill:#adadae;fill-opacity:1" />
<polygon
   fill="#000000"
   points="70.572,44.76 85.078,59.097 85.04,33.678 "
   id="polygon7"
   style="fill:#adadae;fill-opacity:1" />
<g
   id="g9"
   style="fill:#adadae;fill-opacity:1">
	<path
   fill="#000000"
   d="M81.941,24.296l-63.399,0.093c-1.704,0.004-3.085,1.295-3.082,2.893v1.239l34.828,26.508l34.743-26.612   v-1.239C85.027,25.579,83.643,24.291,81.941,24.296z M60.73,37.464c-0.323,0.896-0.776,1.703-1.365,2.422   c-0.594,0.715-1.299,1.294-2.135,1.743c-0.834,0.45-1.764,0.68-2.779,0.698c-1.158-0.002-2.042-0.279-2.644-0.843   c-0.478,0.226-0.979,0.42-1.501,0.595c-0.523,0.169-1.185,0.254-1.979,0.259c-0.51-0.002-0.988-0.073-1.429-0.217   c-0.443-0.139-0.838-0.357-1.171-0.665c-0.334-0.301-0.601-0.688-0.797-1.146c-0.201-0.46-0.303-1.012-0.306-1.651   c0-1.012,0.181-1.937,0.537-2.776c0.351-0.844,0.843-1.57,1.464-2.185c0.614-0.611,1.332-1.085,2.151-1.427   c0.82-0.348,1.694-0.52,2.637-0.52c0.714-0.005,1.414,0.046,2.108,0.144c0.689,0.094,1.338,0.248,1.943,0.454l-1.518,7.568   c0.162,0.118,0.426,0.174,0.794,0.171c0.584,0.003,1.106-0.162,1.569-0.487c0.463-0.329,0.844-0.757,1.155-1.277   c0.304-0.52,0.542-1.097,0.701-1.733c0.153-0.625,0.233-1.251,0.233-1.863c-0.002-1.705-0.562-3.012-1.674-3.919   c-1.113-0.908-2.68-1.355-4.695-1.354c-1.564,0.002-2.947,0.253-4.159,0.751c-1.217,0.5-2.244,1.17-3.075,2.013   c-0.833,0.839-1.47,1.813-1.903,2.905c-0.434,1.094-0.653,2.227-0.653,3.402c0.002,1.073,0.174,1.988,0.521,2.746   c0.341,0.753,0.806,1.377,1.395,1.86c0.588,0.479,1.276,0.833,2.063,1.051c0.787,0.227,1.627,0.335,2.515,0.335   c0.829-0.005,1.594-0.051,2.292-0.148c0.7-0.097,1.333-0.249,1.909-0.46c0.141,0.328,0.278,0.667,0.406,1.012   c0.124,0.349,0.242,0.694,0.334,1.038c-0.281,0.133-0.632,0.259-1.024,0.37c-0.4,0.11-0.831,0.202-1.289,0.269   c-0.461,0.067-0.949,0.121-1.467,0.16c-0.519,0.04-1.027,0.061-1.538,0.061c-1.223,0-2.383-0.161-3.478-0.485   c-1.102-0.328-2.06-0.827-2.889-1.51c-0.827-0.674-1.479-1.518-1.961-2.542c-0.477-1.025-0.719-2.249-0.72-3.662   c0-1.325,0.253-2.657,0.774-4.017c0.508-1.356,1.301-2.573,2.362-3.675c1.057-1.097,2.419-1.986,4.062-2.682   c1.642-0.695,3.596-1.048,5.851-1.052c1.209,0.001,2.353,0.153,3.424,0.452c1.067,0.31,2.012,0.771,2.815,1.397   c0.801,0.623,1.439,1.401,1.909,2.348c0.466,0.948,0.703,2.056,0.708,3.33C61.219,35.652,61.055,36.56,60.73,37.464z"
   id="path11"
   style="fill:#adadae;fill-opacity:1" />
	<path
   fill="#000000"
   d="M51.15,34.096c-0.535,0-1.006,0.112-1.414,0.338c-0.417,0.227-0.765,0.527-1.055,0.897   c-0.292,0.372-0.512,0.792-0.661,1.29c-0.155,0.49-0.23,1-0.234,1.528c0.002,0.677,0.16,1.167,0.479,1.472   c0.314,0.302,0.726,0.449,1.243,0.446c0.323,0.003,0.602-0.021,0.838-0.064c0.229-0.044,0.485-0.109,0.762-0.187l1.034-5.612   c-0.177-0.044-0.343-0.072-0.498-0.087C51.491,34.1,51.324,34.095,51.15,34.096z"
   id="path13"
   style="fill:#adadae;fill-opacity:1" />
</g>
</svg>