<?xml version="1.0" encoding="UTF-8" standalone="no"?>
<svg
   xmlns:dc="http://purl.org/dc/elements/1.1/"
   xmlns:cc="http://creativecommons.org/ns#"
   xmlns:rdf="http://www.w3.org/1999/02/22-rdf-syntax-ns#"
   xmlns:svg="http://www.w3.org/2000/svg"
   xmlns="http://www.w3.org/2000/svg"
   xmlns:sodipodi="http://sodipodi.sourceforge.net/DTD/sodipodi-0.dtd"
   xmlns:inkscape="http://www.inkscape.org/namespaces/inkscape"
   version="1.1"
   id="Layer_1"
   x="0px"
   y="0px"
   width="100px"
   height="96.706px"
   viewBox="0 0 100 96.706"
   enable-background="new 0 0 100 96.706"
   xml:space="preserve"
   inkscape:version="0.48.4 r9939"
   sodipodi:docname="email3.svg"><metadata
   id="metadata9"><rdf:RDF><cc:Work
       rdf:about=""><dc:format>image/svg+xml</dc:format><dc:type
         rdf:resource="http://purl.org/dc/dcmitype/StillImage" /></cc:Work></rdf:RDF></metadata><defs
   id="defs7" /><sodipodi:namedview
   pagecolor="#ffffff"
   bordercolor="#666666"
   borderopacity="1"
   objecttolerance="10"
   gridtolerance="10"
   guidetolerance="10"
   inkscape:pageopacity="0"
   inkscape:pageshadow="2"
   inkscape:window-width="640"
   inkscape:window-height="470"
   id="namedview5"
   showgrid="false"
   inkscape:zoom="2.4403863"
   inkscape:cx="50"
   inkscape:cy="48.353001"
   inkscape:window-x="157"
   inkscape:window-y="112"
   inkscape:window-maximized="0"
   inkscape:current-layer="Layer_1" />
<path
   d="M50.006,0L0,37.331v59.375h100V37.331L50.006,0z M36.172,26.641c1.471-2.682,3.49-4.7,6.055-6.042  c2.559-1.354,5.482-2.031,8.783-2.031c2.787,0,5.273,0.547,7.448,1.627c2.175,1.094,3.828,2.63,4.98,4.636  c1.14,2.005,1.719,4.192,1.719,6.562c0,2.825-0.872,5.377-2.61,7.669c-2.188,2.878-4.98,4.323-8.398,4.323  c-0.918,0-1.608-0.156-2.077-0.482c-0.462-0.326-0.781-0.794-0.931-1.419c-1.302,1.263-2.819,1.901-4.524,1.901  c-1.843,0-3.366-0.638-4.577-1.901c-1.211-1.276-1.823-2.969-1.823-5.065c0-2.617,0.729-4.987,2.194-7.135  c1.777-2.617,4.043-3.933,6.816-3.933c1.973,0,3.431,0.755,4.369,2.266l0.423-1.849h4.395l-2.513,11.927  c-0.156,0.755-0.234,1.237-0.234,1.458c0,0.287,0.059,0.482,0.188,0.625c0.124,0.143,0.28,0.208,0.456,0.208  c0.54,0,1.224-0.312,2.063-0.964c1.133-0.833,2.045-1.979,2.741-3.385c0.703-1.419,1.055-2.891,1.055-4.414  c0-2.721-0.983-5-2.956-6.849c-1.979-1.823-4.739-2.747-8.274-2.747c-3.008,0-5.553,0.612-7.643,1.849  c-2.083,1.211-3.652,2.943-4.727,5.169c-1.055,2.213-1.582,4.531-1.582,6.94c0,2.331,0.599,4.466,1.771,6.38  c1.191,1.927,2.845,3.32,4.974,4.206c2.135,0.873,4.577,1.315,7.324,1.315c2.644,0,4.922-0.365,6.836-1.107  c1.907-0.742,3.444-1.836,4.609-3.32h3.535c-1.106,2.252-2.806,4.01-5.098,5.299c-2.63,1.458-5.84,2.188-9.609,2.188  c-3.666,0-6.823-0.612-9.479-1.849c-2.669-1.237-4.642-3.06-5.944-5.469c-1.295-2.409-1.94-5.039-1.94-7.878  C33.965,32.24,34.694,29.336,36.172,26.641z M3.529,38.516l36.895,24.74L3.529,91.81V38.516z M6.328,93.711l43.678-33.803  l43.666,33.803H6.328z M96.472,91.81L59.577,63.255l36.895-24.74V91.81z M51.81,29.362c0.586,0.664,0.879,1.627,0.879,2.877  c0,1.12-0.221,2.331-0.645,3.62c-0.423,1.302-0.931,2.292-1.517,2.969c-0.41,0.469-0.833,0.82-1.256,1.042  c-0.554,0.312-1.14,0.469-1.771,0.469c-0.846,0-1.549-0.339-2.129-1.003c-0.566-0.664-0.846-1.692-0.846-3.099  c0-1.055,0.202-2.266,0.612-3.633s1.022-2.409,1.83-3.151c0.813-0.742,1.692-1.106,2.643-1.106  C50.495,28.347,51.23,28.685,51.81,29.362z"
   id="path3"
   style="fill:#adadae;fill-opacity:1" />
</svg>