<?xml version="1.0" encoding="UTF-8" standalone="no"?>
<!-- Generator: Adobe Illustrator 14.0.0, SVG Export Plug-In . SVG Version: 6.00 Build 43363)  -->

<svg
   xmlns:dc="http://purl.org/dc/elements/1.1/"
   xmlns:cc="http://creativecommons.org/ns#"
   xmlns:rdf="http://www.w3.org/1999/02/22-rdf-syntax-ns#"
   xmlns:svg="http://www.w3.org/2000/svg"
   xmlns="http://www.w3.org/2000/svg"
   xmlns:sodipodi="http://sodipodi.sourceforge.net/DTD/sodipodi-0.dtd"
   xmlns:inkscape="http://www.inkscape.org/namespaces/inkscape"
   version="1.0"
   id="Layer_1"
   x="0px"
   y="0px"
   width="100px"
   height="75.422px"
   viewBox="0 0 100 75.422"
   enable-background="new 0 0 100 75.422"
   xml:space="preserve"
   inkscape:version="0.48.4 r9939"
   sodipodi:docname="email.svg"><metadata
   id="metadata9"><rdf:RDF><cc:Work
       rdf:about=""><dc:format>image/svg+xml</dc:format><dc:type
         rdf:resource="http://purl.org/dc/dcmitype/StillImage" /></cc:Work></rdf:RDF></metadata><defs
   id="defs7" /><sodipodi:namedview
   pagecolor="#ffffff"
   bordercolor="#666666"
   borderopacity="1"
   objecttolerance="10"
   gridtolerance="10"
   guidetolerance="10"
   inkscape:pageopacity="0"
   inkscape:pageshadow="2"
   inkscape:window-width="640"
   inkscape:window-height="480"
   id="namedview5"
   showgrid="false"
   inkscape:zoom="3.1290606"
   inkscape:cx="50"
   inkscape:cy="37.710999"
   inkscape:window-x="0"
   inkscape:window-y="0"
   inkscape:window-maximized="0"
   inkscape:current-layer="Layer_1" />
<path
   d="M100,75.422H0V0h100V75.422L100,75.422z M11.833,68.445h76.333L63.048,42.73l-4.756,4.787  c-2.059,2.058-5.007,3.236-8.105,3.236c-0.017,0-0.035-0.003-0.052-0.003c-3.11-0.013-6.067-1.216-8.115-3.304l-4.835-4.895  L11.833,68.445L11.833,68.445z M6.977,11.973v51.461L32.282,37.59L6.977,11.973L6.977,11.973z M67.964,37.78l25.059,25.651V12.551  L67.964,37.78L67.964,37.78z M11.849,6.979l35.143,35.573c0.761,0.774,1.916,1.218,3.174,1.221c0.008,0,0.014,0,0.021,0  c1.24,0,2.421-0.438,3.161-1.182L88.722,6.979H11.849L11.849,6.979z"
   id="path3"
   style="fill:#adadae;fill-opacity:1" />
</svg>