<?xml version="1.0" encoding="UTF-8" standalone="no"?>
<svg
   xmlns:dc="http://purl.org/dc/elements/1.1/"
   xmlns:cc="http://creativecommons.org/ns#"
   xmlns:rdf="http://www.w3.org/1999/02/22-rdf-syntax-ns#"
   xmlns:svg="http://www.w3.org/2000/svg"
   xmlns="http://www.w3.org/2000/svg"
   xmlns:sodipodi="http://sodipodi.sourceforge.net/DTD/sodipodi-0.dtd"
   xmlns:inkscape="http://www.inkscape.org/namespaces/inkscape"
   version="1.1"
   id="Layer_1"
   x="0px"
   y="0px"
   width="100px"
   height="52px"
   viewBox="0 0 100 52"
   enable-background="new 0 0 100 52"
   xml:space="preserve"
   inkscape:version="0.48.4 r9939"
   sodipodi:docname="link.svg"><metadata
   id="metadata39"><rdf:RDF><cc:Work
       rdf:about=""><dc:format>image/svg+xml</dc:format><dc:type
         rdf:resource="http://purl.org/dc/dcmitype/StillImage" /></cc:Work></rdf:RDF></metadata><defs
   id="defs37" /><sodipodi:namedview
   pagecolor="#ffffff"
   bordercolor="#666666"
   borderopacity="1"
   objecttolerance="10"
   gridtolerance="10"
   guidetolerance="10"
   inkscape:pageopacity="0"
   inkscape:pageshadow="2"
   inkscape:window-width="640"
   inkscape:window-height="480"
   id="namedview35"
   showgrid="false"
   inkscape:zoom="3.18"
   inkscape:cx="50"
   inkscape:cy="26"
   inkscape:window-x="0"
   inkscape:window-y="0"
   inkscape:window-maximized="0"
   inkscape:current-layer="Layer_1" />
<path
   fill="none"
   d="M47.807,33.138c0.008-0.009,0.016-0.019,0.024-0.026c-0.009,0.007-0.018,0.015-0.026,0.023  C47.805,33.136,47.806,33.137,47.807,33.138z"
   id="path3" />
<path
   fill="none"
   d="M53.048,49.8c-0.274-0.071-0.545-0.152-0.815-0.232c-0.002,0.001-0.005,0.003-0.007,0.003  C52.485,49.648,52.76,49.726,53.048,49.8z"
   id="path5" />
<path
   fill="none"
   d="M36.33,35.501h-0.004c0.204,0.522,0.496,1.114,0.783,1.651h0.013C36.838,36.612,36.574,36.062,36.33,35.501z"
   id="path7" />
<path
   fill="#000000"
   d="M37.108,37.152c0.291,0.544,0.577,1.029,0.758,1.332c-0.263-0.436-0.508-0.882-0.746-1.332H37.108z"
   id="path9" />
<path
   fill="#000000"
   d="M38.062,38.804h0.006c-0.048-0.079-0.1-0.152-0.147-0.231C38.008,38.717,38.062,38.804,38.062,38.804z"
   id="path11" />
<path
   fill="#000000"
   d="M51.812,49.445c-0.631-0.197-1.249-0.424-1.856-0.669c-0.003,0.002-0.007,0.003-0.009,0.004  C50.007,48.805,50.728,49.104,51.812,49.445z"
   id="path13" />
<path
   fill="#000000"
   d="M52.226,49.57c0.002,0,0.005-0.002,0.007-0.003c-0.106-0.03-0.213-0.057-0.318-0.091  C52.016,49.509,52.12,49.541,52.226,49.57z"
   id="path15" />
<path
   fill="#000000"
   d="M74.458,0.955H59.321c-1.307,0-2.591,0.1-3.845,0.293c-0.273,0.042-0.541,0.101-0.811,0.151  c4.646,2.666,8.469,6.605,10.987,11.343h1.238h8.346c7.322,0,13.257,5.937,13.257,13.259c0,7.321-5.936,13.258-13.257,13.258h-9.516  h-1.958h-1.905h-0.006h-3.171c-3.305,0-6.324-1.212-8.646-3.212c0,0-0.003,0.003-0.003,0.003c0-0.002-0.001-0.002-0.002-0.003  c-0.494-0.414-0.886-0.802-1.206-1.148c-0.7-0.764-1.011-1.303-1.011-1.303c0.001-0.002,0.002-0.002,0.002-0.003  c-0.001-0.001-0.002-0.002-0.002-0.003c-1.505-2.15-2.389-4.766-2.389-7.589c0-2.746,0.834-5.296,2.263-7.413  c0.041-0.06,0.086-0.117,0.127-0.176c-1.736-1.473-3.978-2.367-6.429-2.367h-5.041c-1.325,3.052-2.067,6.416-2.067,9.956  c0,3.538,0.737,6.903,2.061,9.955c0.244,0.561,0.509,1.111,0.792,1.651c0.237,0.45,0.482,0.896,0.746,1.332  c0.02,0.033,0.036,0.059,0.054,0.088c0.047,0.079,0.099,0.152,0.147,0.231c2.792,4.463,6.948,7.98,11.888,9.973  c0.608,0.245,1.226,0.472,1.856,0.669c0.034,0.011,0.068,0.022,0.103,0.031c0.105,0.034,0.212,0.061,0.318,0.091  c0.27,0.08,0.541,0.161,0.815,0.232c0.004,0,0.006,0.002,0.01,0.003c2,0.513,4.096,0.787,6.254,0.787h15.137  c13.832,0,25.044-11.213,25.044-25.044C99.502,12.169,88.29,0.955,74.458,0.955z"
   id="path17"
   style="fill:#adadae;fill-opacity:1" />
<path
   fill="#000000"
   d="M25.542,51.045h15.137c1.308,0,2.592-0.101,3.846-0.294c0.273-0.042,0.542-0.1,0.811-0.151  c-4.646-2.665-8.47-6.604-10.987-11.342H33.11h-8.346c-7.322,0-13.257-5.936-13.257-13.259c0-7.322,5.935-13.257,13.257-13.257  h9.516h1.957h1.905h0.007h3.17c3.304,0,6.323,1.212,8.645,3.212l0.002-0.003c0.001,0.001,0.001,0.002,0.002,0.003  c0.495,0.413,0.887,0.801,1.206,1.148c0.701,0.762,1.011,1.302,1.011,1.302c0,0.001-0.001,0.002-0.002,0.003  c0.001,0,0.002,0.001,0.003,0.003c1.505,2.15,2.39,4.766,2.39,7.588c0,2.746-0.835,5.297-2.264,7.412  c-0.041,0.062-0.085,0.118-0.127,0.176c1.736,1.474,3.979,2.369,6.429,2.369h5.042c1.324-3.053,2.065-6.417,2.065-9.957  c0-3.539-0.737-6.903-2.061-9.955c-0.244-0.561-0.509-1.111-0.792-1.651c-0.237-0.451-0.482-0.898-0.746-1.332  c-0.02-0.033-0.036-0.06-0.053-0.089c-0.048-0.078-0.099-0.153-0.147-0.23c-2.792-4.463-6.949-7.981-11.888-9.973  c-0.608-0.245-1.226-0.471-1.856-0.67c-0.034-0.011-0.068-0.021-0.103-0.032c-0.105-0.032-0.212-0.059-0.318-0.089  c-0.27-0.081-0.541-0.162-0.816-0.232c-0.004-0.001-0.006-0.001-0.009-0.002c-2-0.515-4.095-0.788-6.255-0.788H25.542  c-13.832,0-25.044,11.212-25.044,25.044C0.498,39.832,11.71,51.045,25.542,51.045z"
   id="path19"
   style="fill:#adadae;fill-opacity:1" />
<path
   fill="#000000"
   d="M53.058,49.803c-0.003-0.001-0.006-0.003-0.01-0.003C53.052,49.8,53.055,49.802,53.058,49.803z"
   id="path21" />
<path
   fill="#000000"
   d="M51.812,49.445c0.034,0.011,0.068,0.022,0.103,0.031C51.881,49.468,51.847,49.456,51.812,49.445z"
   id="path23" />
<path
   fill="#000000"
   d="M47.805,33.141c0,0,0.311,0.539,1.011,1.303c0.005-0.006,0.01-0.012,0.016-0.015  c-0.369-0.407-0.709-0.84-1.025-1.291C47.807,33.139,47.806,33.139,47.805,33.141z"
   id="path25" />
<path
   fill="#000000"
   d="M37.92,38.572c-0.018-0.029-0.034-0.055-0.054-0.088C37.885,38.514,37.902,38.542,37.92,38.572z"
   id="path27" />
<path
   fill="#000000"
   d="M48.832,34.429c-0.006,0.003-0.011,0.009-0.016,0.015c0.319,0.347,0.711,0.734,1.206,1.148  c0.001-0.002,0.002-0.003,0.002-0.003C49.604,35.227,49.204,34.84,48.832,34.429z"
   id="path29" />
<path
   fill="#000000"
   d="M50.027,35.592c0.001-0.003,0.004-0.006,0.012-0.015c-0.004,0.004-0.01,0.008-0.015,0.012  C50.025,35.589,50.026,35.59,50.027,35.592z"
   id="path31" />
<rect
   x="50.022"
   y="35.59"
   fill="#000000"
   width="0.004"
   height="0.004"
   id="rect33" />
</svg>