<?xml version="1.0" encoding="UTF-8" standalone="no"?>
<!-- Created with Inkscape (http://www.inkscape.org/) -->

<svg
   xmlns:dc="http://purl.org/dc/elements/1.1/"
   xmlns:cc="http://creativecommons.org/ns#"
   xmlns:rdf="http://www.w3.org/1999/02/22-rdf-syntax-ns#"
   xmlns:svg="http://www.w3.org/2000/svg"
   xmlns="http://www.w3.org/2000/svg"
   version="1.0"
   width="74.088997"
   height="99.818001"
   viewBox="0 0 74.089 99.818"
   id="Layer_1"
   xml:space="preserve"><metadata
   id="metadata10"><rdf:RDF><cc:Work
       rdf:about=""><dc:format>image/svg+xml</dc:format><dc:type
         rdf:resource="http://purl.org/dc/dcmitype/StillImage" /><dc:title></dc:title></cc:Work></rdf:RDF></metadata><defs
   id="defs8" />
<path
   d="m 21.547,0.091 c 0,0 -21.827,0.287 -21.544,20.059 0.284,19.773 4.253,37.255 10.773,46.998 6.519,9.744 23.242,35.248 42.236,32.67 0,0 9.355,-2.007 16.44,-6.593 L 46.492,75.171 c 0,0 -6.803,4.299 -11.055,-1.433 -4.253,-5.73 -17.575,-32.381 -17.575,-32.381 0,0 -3.685,-8.598 4.536,-12.323 L 21.547,0.091 z"
   id="path3480_1_"
   style="fill:#adadae;fill-opacity:1" />
<path
   d="m 24.099,0.091 c 0,0 1.701,-0.571 4.818,1.147 3.118,1.719 3.118,3.15 3.118,3.15 l 0.284,19.775 c 0,0 -0.851,1.147 -1.984,2.291 -1.134,1.146 -4.819,2.867 -5.387,1.72 C 24.383,27.029 24.099,0.091 24.099,0.091 z"
   id="path3482_1_"
   style="fill:#adadae;fill-opacity:1" />
<path
   d="m 48.401,73.058 6.312,-3.332 c 0,0 1.417,-0.285 3.684,1.146 2.268,1.436 14.174,10.893 14.174,10.893 0,0 1.984,1.719 1.417,3.725 -0.566,2.006 -1.984,6.305 -1.984,6.305 L 48.401,73.058 z"
   id="path3484_1_"
   style="fill:#adadae;fill-opacity:1" />
</svg>